<svg viewBox="-16 -32 880 192" width="880" height="192" xmlns="http://www.w3.org/2000/svg"><desc>Generated with https://github.com/Platane/snk</desc><style>:root{--cb:#1b1f230a;--cs:#13768a;--ce:#1d2530;--c0:#1d2530;--c1:#b32d00;--c2:#cc3300;--c3:#e63900;--c4:#ff4000}.c{shape-rendering:geometricPrecision;fill:var(--ce);stroke-width:1px;stroke:var(--cb);animation:none 46900ms linear infinite;width:12px;height:12px}@keyframes c0{53.51%{fill:var(--c2)}53.53%,100%{fill:var(--ce)}}.c.c0{fill:var(--c2);animation-name:c0}@keyframes c1{98.07%{fill:var(--c4)}98.09%,100%{fill:var(--ce)}}.c.c1{fill:var(--c4);animation-name:c1}@keyframes c2{4.04%{fill:var(--c1)}4.06%,100%{fill:var(--ce)}}.c.c2{fill:var(--c1);animation-name:c2}@keyframes c3{2.12%{fill:var(--c1)}2.14%,100%{fill:var(--ce)}}.c.c3{fill:var(--c1);animation-name:c3}@keyframes c4{3.19%{fill:var(--c1)}3.21%,100%{fill:var(--ce)}}.c.c4{fill:var(--c1);animation-name:c4}@keyframes c5{7.24%{fill:var(--c1)}7.26%,100%{fill:var(--ce)}}.c.c5{fill:var(--c1);animation-name:c5}@keyframes c6{45.62%{fill:var(--c2)}45.64%,100%{fill:var(--ce)}}.c.c6{fill:var(--c2);animation-name:c6}@keyframes c7{15.13%{fill:var(--c1)}15.15%,100%{fill:var(--ce)}}.c.c7{fill:var(--c1);animation-name:c7}@keyframes c8{8.31%{fill:var(--c1)}8.33%,100%{fill:var(--ce)}}.c.c8{fill:var(--c1);animation-name:c8}@keyframes c9{44.77%{fill:var(--c2)}44.79%,100%{fill:var(--ce)}}.c.c9{fill:var(--c2);animation-name:c9}@keyframes ca{9.16%{fill:var(--c1)}9.18%,100%{fill:var(--ce)}}.c.ca{fill:var(--c1);animation-name:ca}@keyframes cb{92.53%{fill:var(--c4)}92.55%,100%{fill:var(--ce)}}.c.cb{fill:var(--c4);animation-name:cb}@keyframes cc{14.06%{fill:var(--c1)}14.08%,100%{fill:var(--ce)}}.c.cc{fill:var(--c1);animation-name:cc}@keyframes cd{93.17%{fill:var(--c4)}93.19%,100%{fill:var(--ce)}}.c.cd{fill:var(--c4);animation-name:cd}@keyframes ce{92.31%{fill:var(--c4)}92.33%,100%{fill:var(--ce)}}.c.ce{fill:var(--c4);animation-name:ce}@keyframes cf{17.05%{fill:var(--c1)}17.07%,100%{fill:var(--ce)}}.c.cf{fill:var(--c1);animation-name:cf}@keyframes cg{44.13%{fill:var(--c2)}44.15%,100%{fill:var(--ce)}}.c.cg{fill:var(--c2);animation-name:cg}@keyframes ch{13.64%{fill:var(--c1)}13.66%,100%{fill:var(--ce)}}.c.ch{fill:var(--c1);animation-name:ch}@keyframes ci{75.68%{fill:var(--c3)}75.7%,100%{fill:var(--ce)}}.c.ci{fill:var(--c3);animation-name:ci}@keyframes cj{47.75%{fill:var(--c2)}47.77%,100%{fill:var(--ce)}}.c.cj{fill:var(--c2);animation-name:cj}@keyframes ck{13.42%{fill:var(--c1)}13.44%,100%{fill:var(--ce)}}.c.ck{fill:var(--c1);animation-name:ck}@keyframes cl{13.21%{fill:var(--c1)}13.23%,100%{fill:var(--ce)}}.c.cl{fill:var(--c1);animation-name:cl}@keyframes cm{77.18%{fill:var(--c3)}77.2%,100%{fill:var(--ce)}}.c.cm{fill:var(--c3);animation-name:cm}@keyframes cn{10.01%{fill:var(--c1)}10.03%,100%{fill:var(--ce)}}.c.cn{fill:var(--c1);animation-name:cn}@keyframes co{91.25%{fill:var(--c4)}91.27%,100%{fill:var(--ce)}}.c.co{fill:var(--c4);animation-name:co}@keyframes cp{74.83%{fill:var(--c3)}74.85%,100%{fill:var(--ce)}}.c.cp{fill:var(--c3);animation-name:cp}@keyframes cq{39.65%{fill:var(--c2)}39.67%,100%{fill:var(--ce)}}.c.cq{fill:var(--c2);animation-name:cq}@keyframes cr{10.44%{fill:var(--c1)}10.46%,100%{fill:var(--ce)}}.c.cr{fill:var(--c1);animation-name:cr}@keyframes cs{40.93%{fill:var(--c2)}40.95%,100%{fill:var(--ce)}}.c.cs{fill:var(--c2);animation-name:cs}@keyframes ct{78.03%{fill:var(--c3)}78.05%,100%{fill:var(--ce)}}.c.ct{fill:var(--c3);animation-name:ct}@keyframes cu{33.04%{fill:var(--c1)}33.06%,100%{fill:var(--ce)}}.c.cu{fill:var(--c1);animation-name:cu}@keyframes cv{40.5%{fill:var(--c2)}40.52%,100%{fill:var(--ce)}}.c.cv{fill:var(--c2);animation-name:cv}@keyframes cw{90.61%{fill:var(--c4)}90.63%,100%{fill:var(--ce)}}.c.cw{fill:var(--c4);animation-name:cw}@keyframes cx{41.35%{fill:var(--c2)}41.37%,100%{fill:var(--ce)}}.c.cx{fill:var(--c2);animation-name:cx}@keyframes cy{33.25%{fill:var(--c2)}33.27%,100%{fill:var(--ce)}}.c.cy{fill:var(--c2);animation-name:cy}@keyframes cz{36.88%{fill:var(--c2)}36.9%,100%{fill:var(--ce)}}.c.cz{fill:var(--c2);animation-name:cz}@keyframes c10{11.08%{fill:var(--c1)}11.1%,100%{fill:var(--ce)}}.c.c10{fill:var(--c1);animation-name:c10}@keyframes c11{11.29%{fill:var(--c1)}11.31%,100%{fill:var(--ce)}}.c.c11{fill:var(--c1);animation-name:c11}@keyframes c12{11.5%{fill:var(--c1)}11.52%,100%{fill:var(--ce)}}.c.c12{fill:var(--c1);animation-name:c12}@keyframes c13{36.66%{fill:var(--c2)}36.68%,100%{fill:var(--ce)}}.c.c13{fill:var(--c2);animation-name:c13}@keyframes c14{36.45%{fill:var(--c2)}36.47%,100%{fill:var(--ce)}}.c.c14{fill:var(--c2);animation-name:c14}@keyframes c15{36.02%{fill:var(--c2)}36.04%,100%{fill:var(--ce)}}.c.c15{fill:var(--c2);animation-name:c15}@keyframes c16{37.52%{fill:var(--c2)}37.54%,100%{fill:var(--ce)}}.c.c16{fill:var(--c2);animation-name:c16}@keyframes c17{72.27%{fill:var(--c3)}72.29%,100%{fill:var(--ce)}}.c.c17{fill:var(--c3);animation-name:c17}@keyframes c18{72.48%{fill:var(--c3)}72.5%,100%{fill:var(--ce)}}.c.c18{fill:var(--c3);animation-name:c18}@keyframes c19{35.6%{fill:var(--c1)}35.62%,100%{fill:var(--ce)}}.c.c19{fill:var(--c1);animation-name:c19}@keyframes c1a{35.81%{fill:var(--c2)}35.83%,100%{fill:var(--ce)}}.c.c1a{fill:var(--c2);animation-name:c1a}@keyframes c1b{41.99%{fill:var(--c2)}42.01%,100%{fill:var(--ce)}}.c.c1b{fill:var(--c2);animation-name:c1b}@keyframes c1c{37.94%{fill:var(--c2)}37.96%,100%{fill:var(--ce)}}.c.c1c{fill:var(--c2);animation-name:c1c}@keyframes c1d{88.48%{fill:var(--c4)}88.5%,100%{fill:var(--ce)}}.c.c1d{fill:var(--c4);animation-name:c1d}@keyframes c1e{70.78%{fill:var(--c1)}70.8%,100%{fill:var(--ce)}}.c.c1e{fill:var(--c1);animation-name:c1e}@keyframes c1f{70.57%{fill:var(--c2)}70.59%,100%{fill:var(--ce)}}.c.c1f{fill:var(--c2);animation-name:c1f}@keyframes c1g{70.35%{fill:var(--c1)}70.37%,100%{fill:var(--ce)}}.c.c1g{fill:var(--c1);animation-name:c1g}@keyframes c1h{89.33%{fill:var(--c4)}89.35%,100%{fill:var(--ce)}}.c.c1h{fill:var(--c4);animation-name:c1h}@keyframes c1i{89.54%{fill:var(--c4)}89.56%,100%{fill:var(--ce)}}.c.c1i{fill:var(--c4);animation-name:c1i}@keyframes c1j{71.42%{fill:var(--c3)}71.44%,100%{fill:var(--ce)}}.c.c1j{fill:var(--c3);animation-name:c1j}@keyframes c1k{71.21%{fill:var(--c2)}71.23%,100%{fill:var(--ce)}}.c.c1k{fill:var(--c2);animation-name:c1k}@keyframes c1l{70.99%{fill:var(--c3)}71.01%,100%{fill:var(--ce)}}.c.c1l{fill:var(--c3);animation-name:c1l}@keyframes c1m{72.91%{fill:var(--c3)}72.93%,100%{fill:var(--ce)}}.c.c1m{fill:var(--c3);animation-name:c1m}@keyframes c1n{73.12%{fill:var(--c3)}73.14%,100%{fill:var(--ce)}}.c.c1n{fill:var(--c3);animation-name:c1n}@keyframes c1o{23.23%{fill:var(--c1)}23.25%,100%{fill:var(--ce)}}.c.c1o{fill:var(--c1);animation-name:c1o}@keyframes c1p{23.66%{fill:var(--c1)}23.68%,100%{fill:var(--ce)}}.c.c1p{fill:var(--c1);animation-name:c1p}@keyframes c1q{83.57%{fill:var(--c3)}83.59%,100%{fill:var(--ce)}}.c.c1q{fill:var(--c3);animation-name:c1q}@keyframes c1r{83.79%{fill:var(--c4)}83.81%,100%{fill:var(--ce)}}.c.c1r{fill:var(--c4);animation-name:c1r}@keyframes c1s{24.72%{fill:var(--c1)}24.74%,100%{fill:var(--ce)}}.c.c1s{fill:var(--c1);animation-name:c1s}@keyframes c1t{65.24%{fill:var(--c2)}65.26%,100%{fill:var(--ce)}}.c.c1t{fill:var(--c2);animation-name:c1t}@keyframes c1u{26.86%{fill:var(--c1)}26.88%,100%{fill:var(--ce)}}.c.c1u{fill:var(--c1);animation-name:c1u}@keyframes c1v{85.06%{fill:var(--c4)}85.08%,100%{fill:var(--ce)}}.c.c1v{fill:var(--c4);animation-name:c1v}@keyframes c1w{82.72%{fill:var(--c3)}82.74%,100%{fill:var(--ce)}}.c.c1w{fill:var(--c3);animation-name:c1w}@keyframes c1x{84.21%{fill:var(--c4)}84.23%,100%{fill:var(--ce)}}.c.c1x{fill:var(--c4);animation-name:c1x}@keyframes c1y{27.28%{fill:var(--c1)}27.3%,100%{fill:var(--ce)}}.c.c1y{fill:var(--c1);animation-name:c1y}@keyframes c1z{25.36%{fill:var(--c1)}25.38%,100%{fill:var(--ce)}}.c.c1z{fill:var(--c1);animation-name:c1z}@keyframes c20{25.58%{fill:var(--c1)}25.6%,100%{fill:var(--ce)}}.c.c20{fill:var(--c1);animation-name:c20}.u{transform-origin:0 0;transform:scale(0,1);animation:none linear 46900ms infinite}@keyframes u0{2.12%{transform:scale(0.000,1)}2.14%,3.19%{transform:scale(0.040,1)}3.21%,4.04%{transform:scale(0.080,1)}4.06%,7.24%{transform:scale(0.120,1)}7.26%,8.31%{transform:scale(0.160,1)}8.33%,9.16%{transform:scale(0.200,1)}9.18%,10.01%{transform:scale(0.240,1)}10.03%,10.44%{transform:scale(0.280,1)}10.46%,11.08%{transform:scale(0.320,1)}11.1%,11.29%{transform:scale(0.360,1)}11.31%,11.5%{transform:scale(0.400,1)}11.52%,13.21%{transform:scale(0.440,1)}13.23%,13.42%{transform:scale(0.480,1)}13.44%,13.64%{transform:scale(0.520,1)}13.66%,14.06%{transform:scale(0.560,1)}14.08%,15.13%{transform:scale(0.600,1)}15.15%,17.05%{transform:scale(0.640,1)}17.07%,23.23%{transform:scale(0.680,1)}23.25%,23.66%{transform:scale(0.720,1)}23.68%,24.72%{transform:scale(0.760,1)}24.74%,25.36%{transform:scale(0.800,1)}25.38%,25.58%{transform:scale(0.840,1)}25.6%,26.86%{transform:scale(0.880,1)}26.88%,27.28%{transform:scale(0.920,1)}27.3%,33.04%{transform:scale(0.960,1)}33.06%,100%{transform:scale(1.000,1)}}.u.u0{fill:var(--c1);animation-name:u0;transform-origin:0.0px 0}@keyframes u1{33.25%{transform:scale(0.000,1)}33.27%,100%{transform:scale(1.000,1)}}.u.u1{fill:var(--c2);animation-name:u1;transform-origin:290.4px 0}@keyframes u2{35.6%{transform:scale(0.000,1)}35.62%,100%{transform:scale(1.000,1)}}.u.u2{fill:var(--c1);animation-name:u2;transform-origin:302.0px 0}@keyframes u3{35.81%{transform:scale(0.000,1)}35.83%,36.02%{transform:scale(0.056,1)}36.04%,36.45%{transform:scale(0.111,1)}36.47%,36.66%{transform:scale(0.167,1)}36.68%,36.88%{transform:scale(0.222,1)}36.9%,37.52%{transform:scale(0.278,1)}37.54%,37.94%{transform:scale(0.333,1)}37.96%,39.65%{transform:scale(0.389,1)}39.67%,40.5%{transform:scale(0.444,1)}40.52%,40.93%{transform:scale(0.500,1)}40.95%,41.35%{transform:scale(0.556,1)}41.37%,41.99%{transform:scale(0.611,1)}42.01%,44.13%{transform:scale(0.667,1)}44.15%,44.77%{transform:scale(0.722,1)}44.79%,45.62%{transform:scale(0.778,1)}45.64%,47.75%{transform:scale(0.833,1)}47.77%,53.51%{transform:scale(0.889,1)}53.53%,65.24%{transform:scale(0.944,1)}65.26%,100%{transform:scale(1.000,1)}}.u.u3{fill:var(--c2);animation-name:u3;transform-origin:313.6px 0}@keyframes u4{70.35%{transform:scale(0.000,1)}70.37%,100%{transform:scale(1.000,1)}}.u.u4{fill:var(--c1);animation-name:u4;transform-origin:522.7px 0}@keyframes u5{70.57%{transform:scale(0.000,1)}70.59%,100%{transform:scale(1.000,1)}}.u.u5{fill:var(--c2);animation-name:u5;transform-origin:534.4px 0}@keyframes u6{70.78%{transform:scale(0.000,1)}70.8%,100%{transform:scale(1.000,1)}}.u.u6{fill:var(--c1);animation-name:u6;transform-origin:546.0px 0}@keyframes u7{70.99%{transform:scale(0.000,1)}71.01%,100%{transform:scale(1.000,1)}}.u.u7{fill:var(--c3);animation-name:u7;transform-origin:557.6px 0}@keyframes u8{71.21%{transform:scale(0.000,1)}71.23%,100%{transform:scale(1.000,1)}}.u.u8{fill:var(--c2);animation-name:u8;transform-origin:569.2px 0}@keyframes u9{71.42%{transform:scale(0.000,1)}71.44%,72.27%{transform:scale(0.091,1)}72.29%,72.48%{transform:scale(0.182,1)}72.5%,72.91%{transform:scale(0.273,1)}72.93%,73.12%{transform:scale(0.364,1)}73.14%,74.83%{transform:scale(0.455,1)}74.85%,75.68%{transform:scale(0.545,1)}75.7%,77.18%{transform:scale(0.636,1)}77.2%,78.03%{transform:scale(0.727,1)}78.05%,82.72%{transform:scale(0.818,1)}82.74%,83.57%{transform:scale(0.909,1)}83.59%,100%{transform:scale(1.000,1)}}.u.u9{fill:var(--c3);animation-name:u9;transform-origin:580.8px 0}@keyframes ua{83.79%{transform:scale(0.000,1)}83.81%,84.21%{transform:scale(0.083,1)}84.23%,85.06%{transform:scale(0.167,1)}85.08%,88.48%{transform:scale(0.250,1)}88.5%,89.33%{transform:scale(0.333,1)}89.35%,89.54%{transform:scale(0.417,1)}89.56%,90.61%{transform:scale(0.500,1)}90.63%,91.25%{transform:scale(0.583,1)}91.27%,92.31%{transform:scale(0.667,1)}92.33%,92.53%{transform:scale(0.750,1)}92.55%,93.17%{transform:scale(0.833,1)}93.19%,98.07%{transform:scale(0.917,1)}98.09%,100%{transform:scale(1.000,1)}}.u.ua{fill:var(--c4);animation-name:ua;transform-origin:708.6px 0}.s{shape-rendering:geometricPrecision;fill:var(--cs);animation:none linear 46900ms infinite}@keyframes s0{0%,99.79%{transform:translate(0px,-16px)}0.21%{transform:translate(0px,0px)}1.92%{transform:translate(128px,0px)}2.13%{transform:translate(128px,16px)}2.35%{transform:translate(144px,16px)}3.2%{transform:translate(144px,80px)}3.41%{transform:translate(128px,80px)}3.62%{transform:translate(128px,64px)}4.05%{transform:translate(96px,64px)}4.26%{transform:translate(96px,48px)}6.82%{transform:translate(288px,48px)}7.25%{transform:translate(288px,16px)}8.1%{transform:translate(352px,16px)}8.32%{transform:translate(352px,0px)}8.96%{transform:translate(400px,0px)}9.17%,92.75%{transform:translate(400px,16px)}9.59%,59.06%{transform:translate(432px,16px)}9.81%{transform:translate(432px,32px)}10.66%{transform:translate(496px,32px)}10.87%,32.62%,34.75%{transform:translate(496px,48px)}11.09%,32.41%,34.97%{transform:translate(512px,48px)}11.94%,31.56%{transform:translate(512px,112px)}12.37%{transform:translate(480px,112px)}12.58%,41.15%{transform:translate(480px,96px)}13.22%{transform:translate(432px,96px)}13.43%,76.12%{transform:translate(432px,80px)}13.86%{transform:translate(400px,80px)}14.07%{transform:translate(400px,96px)}14.5%{transform:translate(368px,96px)}14.71%,44.99%{transform:translate(368px,80px)}15.35%{transform:translate(320px,80px)}15.78%{transform:translate(320px,48px)}17.7%{transform:translate(464px,48px)}18.34%{transform:translate(464px,0px)}18.55%,59.91%{transform:translate(480px,0px)}18.76%,39.23%,60.13%{transform:translate(480px,-16px)}22.6%{transform:translate(768px,-16px)}23.24%,24.09%{transform:translate(768px,32px)}23.45%{transform:translate(784px,32px)}23.67%,83.37%{transform:translate(784px,48px)}23.88%,65.67%{transform:translate(768px,48px)}24.52%,82.52%{transform:translate(800px,32px)}24.95%,82.09%{transform:translate(800px,0px)}25.37%{transform:translate(832px,0px)}26.01%{transform:translate(832px,48px)}26.23%,82.94%{transform:translate(816px,48px)}26.44%{transform:translate(816px,64px)}26.65%{transform:translate(800px,64px)}27.08%{transform:translate(800px,96px)}27.29%{transform:translate(816px,96px)}27.51%{transform:translate(816px,112px)}33.05%,34.33%,39.87%,77.83%{transform:translate(496px,16px)}33.26%,37.1%{transform:translate(512px,16px)}33.48%{transform:translate(512px,0px)}33.69%{transform:translate(528px,0px)}33.9%{transform:translate(528px,16px)}35.18%{transform:translate(512px,64px)}35.61%,42.43%,70.15%{transform:translate(544px,64px)}35.82%,89.98%{transform:translate(544px,80px)}36.03%{transform:translate(528px,80px)}36.67%{transform:translate(528px,32px)}36.89%{transform:translate(512px,32px)}37.53%{transform:translate(544px,16px)}37.74%,71.86%{transform:translate(544px,0px)}37.95%{transform:translate(560px,0px)}38.17%{transform:translate(560px,-16px)}39.66%{transform:translate(480px,16px)}40.51%{transform:translate(496px,64px)}40.72%{transform:translate(480px,64px)}42%,89.77%{transform:translate(544px,96px)}44.56%{transform:translate(384px,64px)}44.78%{transform:translate(384px,80px)}45.2%{transform:translate(368px,64px)}45.63%{transform:translate(336px,64px)}45.84%{transform:translate(336px,48px)}47.12%{transform:translate(432px,48px)}47.97%{transform:translate(432px,-16px)}52.88%{transform:translate(64px,-16px)}53.52%,98.29%{transform:translate(64px,32px)}53.73%{transform:translate(48px,32px)}53.94%{transform:translate(48px,16px)}59.28%{transform:translate(432px,0px)}64.39%{transform:translate(800px,-16px)}65.25%{transform:translate(800px,48px)}66.1%{transform:translate(768px,80px)}68.66%{transform:translate(576px,80px)}69.08%{transform:translate(576px,112px)}69.51%{transform:translate(544px,112px)}70.36%{transform:translate(560px,64px)}70.79%{transform:translate(560px,32px)}71%{transform:translate(576px,32px)}71.43%{transform:translate(576px,0px)}72.49%{transform:translate(544px,48px)}72.92%{transform:translate(576px,48px)}73.13%{transform:translate(576px,64px)}74.63%{transform:translate(464px,64px)}75.05%{transform:translate(464px,96px)}75.69%{transform:translate(416px,96px)}75.91%{transform:translate(416px,80px)}76.33%{transform:translate(432px,64px)}76.55%{transform:translate(448px,64px)}77.19%{transform:translate(448px,16px)}78.04%{transform:translate(496px,0px)}82.73%{transform:translate(816px,32px)}83.8%{transform:translate(784px,80px)}84.22%{transform:translate(816px,80px)}85.07%{transform:translate(816px,16px)}88.49%{transform:translate(560px,16px)}89.55%{transform:translate(560px,96px)}91.26%{transform:translate(448px,80px)}91.9%{transform:translate(448px,32px)}92.54%{transform:translate(400px,32px)}92.96%{transform:translate(416px,16px)}93.18%{transform:translate(416px,0px)}97.65%{transform:translate(80px,0px)}98.08%{transform:translate(80px,32px)}98.72%{transform:translate(64px,0px)}98.93%{transform:translate(48px,0px)}99.15%{transform:translate(48px,-16px)}}.s.s0{transform:translate(0px,-16px);animation-name:s0}@keyframes s1{0%,99.79%{transform:translate(16px,-16px)}0.21%{transform:translate(0px,-16px)}0.43%{transform:translate(0px,0px)}2.13%{transform:translate(128px,0px)}2.35%{transform:translate(128px,16px)}2.56%{transform:translate(144px,16px)}3.41%{transform:translate(144px,80px)}3.62%{transform:translate(128px,80px)}3.84%{transform:translate(128px,64px)}4.26%{transform:translate(96px,64px)}4.48%{transform:translate(96px,48px)}7.04%{transform:translate(288px,48px)}7.46%{transform:translate(288px,16px)}8.32%{transform:translate(352px,16px)}8.53%{transform:translate(352px,0px)}9.17%{transform:translate(400px,0px)}9.38%,92.96%{transform:translate(400px,16px)}9.81%,59.28%{transform:translate(432px,16px)}10.02%{transform:translate(432px,32px)}10.87%{transform:translate(496px,32px)}11.09%,32.84%,34.97%{transform:translate(496px,48px)}11.3%,32.62%,35.18%{transform:translate(512px,48px)}12.15%,31.77%{transform:translate(512px,112px)}12.58%{transform:translate(480px,112px)}12.79%,41.36%{transform:translate(480px,96px)}13.43%{transform:translate(432px,96px)}13.65%,76.33%{transform:translate(432px,80px)}14.07%{transform:translate(400px,80px)}14.29%{transform:translate(400px,96px)}14.71%{transform:translate(368px,96px)}14.93%,45.2%{transform:translate(368px,80px)}15.57%{transform:translate(320px,80px)}15.99%{transform:translate(320px,48px)}17.91%{transform:translate(464px,48px)}18.55%{transform:translate(464px,0px)}18.76%,60.13%{transform:translate(480px,0px)}18.98%,39.45%,60.34%{transform:translate(480px,-16px)}22.81%{transform:translate(768px,-16px)}23.45%,24.31%{transform:translate(768px,32px)}23.67%{transform:translate(784px,32px)}23.88%,83.58%{transform:translate(784px,48px)}24.09%,65.88%{transform:translate(768px,48px)}24.73%,82.73%{transform:translate(800px,32px)}25.16%,82.3%{transform:translate(800px,0px)}25.59%{transform:translate(832px,0px)}26.23%{transform:translate(832px,48px)}26.44%,83.16%{transform:translate(816px,48px)}26.65%{transform:translate(816px,64px)}26.87%{transform:translate(800px,64px)}27.29%{transform:translate(800px,96px)}27.51%{transform:translate(816px,96px)}27.72%{transform:translate(816px,112px)}33.26%,34.54%,40.09%,78.04%{transform:translate(496px,16px)}33.48%,37.31%{transform:translate(512px,16px)}33.69%{transform:translate(512px,0px)}33.9%{transform:translate(528px,0px)}34.12%{transform:translate(528px,16px)}35.39%{transform:translate(512px,64px)}35.82%,42.64%,70.36%{transform:translate(544px,64px)}36.03%,90.19%{transform:translate(544px,80px)}36.25%{transform:translate(528px,80px)}36.89%{transform:translate(528px,32px)}37.1%{transform:translate(512px,32px)}37.74%{transform:translate(544px,16px)}37.95%,72.07%{transform:translate(544px,0px)}38.17%{transform:translate(560px,0px)}38.38%{transform:translate(560px,-16px)}39.87%{transform:translate(480px,16px)}40.72%{transform:translate(496px,64px)}40.94%{transform:translate(480px,64px)}42.22%,89.98%{transform:translate(544px,96px)}44.78%{transform:translate(384px,64px)}44.99%{transform:translate(384px,80px)}45.42%{transform:translate(368px,64px)}45.84%{transform:translate(336px,64px)}46.06%{transform:translate(336px,48px)}47.33%{transform:translate(432px,48px)}48.19%{transform:translate(432px,-16px)}53.09%{transform:translate(64px,-16px)}53.73%,98.51%{transform:translate(64px,32px)}53.94%{transform:translate(48px,32px)}54.16%{transform:translate(48px,16px)}59.49%{transform:translate(432px,0px)}64.61%{transform:translate(800px,-16px)}65.46%{transform:translate(800px,48px)}66.31%{transform:translate(768px,80px)}68.87%{transform:translate(576px,80px)}69.3%{transform:translate(576px,112px)}69.72%{transform:translate(544px,112px)}70.58%{transform:translate(560px,64px)}71%{transform:translate(560px,32px)}71.22%{transform:translate(576px,32px)}71.64%{transform:translate(576px,0px)}72.71%{transform:translate(544px,48px)}73.13%{transform:translate(576px,48px)}73.35%{transform:translate(576px,64px)}74.84%{transform:translate(464px,64px)}75.27%{transform:translate(464px,96px)}75.91%{transform:translate(416px,96px)}76.12%{transform:translate(416px,80px)}76.55%{transform:translate(432px,64px)}76.76%{transform:translate(448px,64px)}77.4%{transform:translate(448px,16px)}78.25%{transform:translate(496px,0px)}82.94%{transform:translate(816px,32px)}84.01%{transform:translate(784px,80px)}84.43%{transform:translate(816px,80px)}85.29%{transform:translate(816px,16px)}88.7%{transform:translate(560px,16px)}89.77%{transform:translate(560px,96px)}91.47%{transform:translate(448px,80px)}92.11%{transform:translate(448px,32px)}92.75%{transform:translate(400px,32px)}93.18%{transform:translate(416px,16px)}93.39%{transform:translate(416px,0px)}97.87%{transform:translate(80px,0px)}98.29%{transform:translate(80px,32px)}98.93%{transform:translate(64px,0px)}99.15%{transform:translate(48px,0px)}99.36%{transform:translate(48px,-16px)}}.s.s1{transform:translate(16px,-16px);animation-name:s1}@keyframes s2{0%,99.79%{transform:translate(32px,-16px)}0.43%{transform:translate(0px,-16px)}0.64%{transform:translate(0px,0px)}2.35%{transform:translate(128px,0px)}2.56%{transform:translate(128px,16px)}2.77%{transform:translate(144px,16px)}3.62%{transform:translate(144px,80px)}3.84%{transform:translate(128px,80px)}4.05%{transform:translate(128px,64px)}4.48%{transform:translate(96px,64px)}4.69%{transform:translate(96px,48px)}7.25%{transform:translate(288px,48px)}7.68%{transform:translate(288px,16px)}8.53%{transform:translate(352px,16px)}8.74%{transform:translate(352px,0px)}9.38%{transform:translate(400px,0px)}9.59%,93.18%{transform:translate(400px,16px)}10.02%,59.49%{transform:translate(432px,16px)}10.23%{transform:translate(432px,32px)}11.09%{transform:translate(496px,32px)}11.3%,33.05%,35.18%{transform:translate(496px,48px)}11.51%,32.84%,35.39%{transform:translate(512px,48px)}12.37%,31.98%{transform:translate(512px,112px)}12.79%{transform:translate(480px,112px)}13.01%,41.58%{transform:translate(480px,96px)}13.65%{transform:translate(432px,96px)}13.86%,76.55%{transform:translate(432px,80px)}14.29%{transform:translate(400px,80px)}14.5%{transform:translate(400px,96px)}14.93%{transform:translate(368px,96px)}15.14%,45.42%{transform:translate(368px,80px)}15.78%{transform:translate(320px,80px)}16.2%{transform:translate(320px,48px)}18.12%{transform:translate(464px,48px)}18.76%{transform:translate(464px,0px)}18.98%,60.34%{transform:translate(480px,0px)}19.19%,39.66%,60.55%{transform:translate(480px,-16px)}23.03%{transform:translate(768px,-16px)}23.67%,24.52%{transform:translate(768px,32px)}23.88%{transform:translate(784px,32px)}24.09%,83.8%{transform:translate(784px,48px)}24.31%,66.1%{transform:translate(768px,48px)}24.95%,82.94%{transform:translate(800px,32px)}25.37%,82.52%{transform:translate(800px,0px)}25.8%{transform:translate(832px,0px)}26.44%{transform:translate(832px,48px)}26.65%,83.37%{transform:translate(816px,48px)}26.87%{transform:translate(816px,64px)}27.08%{transform:translate(800px,64px)}27.51%{transform:translate(800px,96px)}27.72%{transform:translate(816px,96px)}27.93%{transform:translate(816px,112px)}33.48%,34.75%,40.3%,78.25%{transform:translate(496px,16px)}33.69%,37.53%{transform:translate(512px,16px)}33.9%{transform:translate(512px,0px)}34.12%{transform:translate(528px,0px)}34.33%{transform:translate(528px,16px)}35.61%{transform:translate(512px,64px)}36.03%,42.86%,70.58%{transform:translate(544px,64px)}36.25%,90.41%{transform:translate(544px,80px)}36.46%{transform:translate(528px,80px)}37.1%{transform:translate(528px,32px)}37.31%{transform:translate(512px,32px)}37.95%{transform:translate(544px,16px)}38.17%,72.28%{transform:translate(544px,0px)}38.38%{transform:translate(560px,0px)}38.59%{transform:translate(560px,-16px)}40.09%{transform:translate(480px,16px)}40.94%{transform:translate(496px,64px)}41.15%{transform:translate(480px,64px)}42.43%,90.19%{transform:translate(544px,96px)}44.99%{transform:translate(384px,64px)}45.2%{transform:translate(384px,80px)}45.63%{transform:translate(368px,64px)}46.06%{transform:translate(336px,64px)}46.27%{transform:translate(336px,48px)}47.55%{transform:translate(432px,48px)}48.4%{transform:translate(432px,-16px)}53.3%{transform:translate(64px,-16px)}53.94%,98.72%{transform:translate(64px,32px)}54.16%{transform:translate(48px,32px)}54.37%{transform:translate(48px,16px)}59.7%{transform:translate(432px,0px)}64.82%{transform:translate(800px,-16px)}65.67%{transform:translate(800px,48px)}66.52%{transform:translate(768px,80px)}69.08%{transform:translate(576px,80px)}69.51%{transform:translate(576px,112px)}69.94%{transform:translate(544px,112px)}70.79%{transform:translate(560px,64px)}71.22%{transform:translate(560px,32px)}71.43%{transform:translate(576px,32px)}71.86%{transform:translate(576px,0px)}72.92%{transform:translate(544px,48px)}73.35%{transform:translate(576px,48px)}73.56%{transform:translate(576px,64px)}75.05%{transform:translate(464px,64px)}75.48%{transform:translate(464px,96px)}76.12%{transform:translate(416px,96px)}76.33%{transform:translate(416px,80px)}76.76%{transform:translate(432px,64px)}76.97%{transform:translate(448px,64px)}77.61%{transform:translate(448px,16px)}78.46%{transform:translate(496px,0px)}83.16%{transform:translate(816px,32px)}84.22%{transform:translate(784px,80px)}84.65%{transform:translate(816px,80px)}85.5%{transform:translate(816px,16px)}88.91%{transform:translate(560px,16px)}89.98%{transform:translate(560px,96px)}91.68%{transform:translate(448px,80px)}92.32%{transform:translate(448px,32px)}92.96%{transform:translate(400px,32px)}93.39%{transform:translate(416px,16px)}93.6%{transform:translate(416px,0px)}98.08%{transform:translate(80px,0px)}98.51%{transform:translate(80px,32px)}99.15%{transform:translate(64px,0px)}99.36%{transform:translate(48px,0px)}99.57%{transform:translate(48px,-16px)}}.s.s2{transform:translate(32px,-16px);animation-name:s2}@keyframes s3{0%,99.79%{transform:translate(48px,-16px)}0.64%{transform:translate(0px,-16px)}0.85%{transform:translate(0px,0px)}2.56%{transform:translate(128px,0px)}2.77%{transform:translate(128px,16px)}2.99%{transform:translate(144px,16px)}3.84%{transform:translate(144px,80px)}4.05%{transform:translate(128px,80px)}4.26%{transform:translate(128px,64px)}4.69%{transform:translate(96px,64px)}4.9%{transform:translate(96px,48px)}7.46%{transform:translate(288px,48px)}7.89%{transform:translate(288px,16px)}8.74%{transform:translate(352px,16px)}8.96%{transform:translate(352px,0px)}9.59%{transform:translate(400px,0px)}9.81%,93.39%{transform:translate(400px,16px)}10.23%,59.7%{transform:translate(432px,16px)}10.45%{transform:translate(432px,32px)}11.3%{transform:translate(496px,32px)}11.51%,33.26%,35.39%{transform:translate(496px,48px)}11.73%,33.05%,35.61%{transform:translate(512px,48px)}12.58%,32.2%{transform:translate(512px,112px)}13.01%{transform:translate(480px,112px)}13.22%,41.79%{transform:translate(480px,96px)}13.86%{transform:translate(432px,96px)}14.07%,76.76%{transform:translate(432px,80px)}14.5%{transform:translate(400px,80px)}14.71%{transform:translate(400px,96px)}15.14%{transform:translate(368px,96px)}15.35%,45.63%{transform:translate(368px,80px)}15.99%{transform:translate(320px,80px)}16.42%{transform:translate(320px,48px)}18.34%{transform:translate(464px,48px)}18.98%{transform:translate(464px,0px)}19.19%,60.55%{transform:translate(480px,0px)}19.4%,39.87%,60.77%{transform:translate(480px,-16px)}23.24%{transform:translate(768px,-16px)}23.88%,24.73%{transform:translate(768px,32px)}24.09%{transform:translate(784px,32px)}24.31%,84.01%{transform:translate(784px,48px)}24.52%,66.31%{transform:translate(768px,48px)}25.16%,83.16%{transform:translate(800px,32px)}25.59%,82.73%{transform:translate(800px,0px)}26.01%{transform:translate(832px,0px)}26.65%{transform:translate(832px,48px)}26.87%,83.58%{transform:translate(816px,48px)}27.08%{transform:translate(816px,64px)}27.29%{transform:translate(800px,64px)}27.72%{transform:translate(800px,96px)}27.93%{transform:translate(816px,96px)}28.14%{transform:translate(816px,112px)}33.69%,34.97%,40.51%,78.46%{transform:translate(496px,16px)}33.9%,37.74%{transform:translate(512px,16px)}34.12%{transform:translate(512px,0px)}34.33%{transform:translate(528px,0px)}34.54%{transform:translate(528px,16px)}35.82%{transform:translate(512px,64px)}36.25%,43.07%,70.79%{transform:translate(544px,64px)}36.46%,90.62%{transform:translate(544px,80px)}36.67%{transform:translate(528px,80px)}37.31%{transform:translate(528px,32px)}37.53%{transform:translate(512px,32px)}38.17%{transform:translate(544px,16px)}38.38%,72.49%{transform:translate(544px,0px)}38.59%{transform:translate(560px,0px)}38.81%{transform:translate(560px,-16px)}40.3%{transform:translate(480px,16px)}41.15%{transform:translate(496px,64px)}41.36%{transform:translate(480px,64px)}42.64%,90.41%{transform:translate(544px,96px)}45.2%{transform:translate(384px,64px)}45.42%{transform:translate(384px,80px)}45.84%{transform:translate(368px,64px)}46.27%{transform:translate(336px,64px)}46.48%{transform:translate(336px,48px)}47.76%{transform:translate(432px,48px)}48.61%{transform:translate(432px,-16px)}53.52%{transform:translate(64px,-16px)}54.16%,98.93%{transform:translate(64px,32px)}54.37%{transform:translate(48px,32px)}54.58%{transform:translate(48px,16px)}59.91%{transform:translate(432px,0px)}65.03%{transform:translate(800px,-16px)}65.88%{transform:translate(800px,48px)}66.74%{transform:translate(768px,80px)}69.3%{transform:translate(576px,80px)}69.72%{transform:translate(576px,112px)}70.15%{transform:translate(544px,112px)}71%{transform:translate(560px,64px)}71.43%{transform:translate(560px,32px)}71.64%{transform:translate(576px,32px)}72.07%{transform:translate(576px,0px)}73.13%{transform:translate(544px,48px)}73.56%{transform:translate(576px,48px)}73.77%{transform:translate(576px,64px)}75.27%{transform:translate(464px,64px)}75.69%{transform:translate(464px,96px)}76.33%{transform:translate(416px,96px)}76.55%{transform:translate(416px,80px)}76.97%{transform:translate(432px,64px)}77.19%{transform:translate(448px,64px)}77.83%{transform:translate(448px,16px)}78.68%{transform:translate(496px,0px)}83.37%{transform:translate(816px,32px)}84.43%{transform:translate(784px,80px)}84.86%{transform:translate(816px,80px)}85.71%{transform:translate(816px,16px)}89.13%{transform:translate(560px,16px)}90.19%{transform:translate(560px,96px)}91.9%{transform:translate(448px,80px)}92.54%{transform:translate(448px,32px)}93.18%{transform:translate(400px,32px)}93.6%{transform:translate(416px,16px)}93.82%{transform:translate(416px,0px)}98.29%{transform:translate(80px,0px)}98.72%{transform:translate(80px,32px)}99.36%{transform:translate(64px,0px)}99.57%{transform:translate(48px,0px)}}.s.s3{transform:translate(48px,-16px);animation-name:s3}</style><rect class="c" x="2" y="2" rx="2" ry="2"/><rect class="c" x="2" y="18" rx="2" ry="2"/><rect class="c" x="2" y="34" rx="2" ry="2"/><rect class="c" x="2" y="50" rx="2" ry="2"/><rect class="c" x="2" y="66" rx="2" ry="2"/><rect class="c" x="2" y="82" rx="2" ry="2"/><rect class="c" x="2" y="98" rx="2" ry="2"/><rect class="c" x="18" y="2" rx="2" ry="2"/><rect class="c" x="18" y="18" rx="2" ry="2"/><rect class="c" x="18" y="34" rx="2" ry="2"/><rect class="c" x="18" y="50" rx="2" ry="2"/><rect class="c" x="18" y="66" rx="2" ry="2"/><rect class="c" x="18" y="82" rx="2" ry="2"/><rect class="c" x="18" y="98" rx="2" ry="2"/><rect class="c" x="34" y="2" rx="2" ry="2"/><rect class="c" x="34" y="18" rx="2" ry="2"/><rect class="c" x="34" y="34" rx="2" ry="2"/><rect class="c" x="34" y="50" rx="2" ry="2"/><rect class="c" x="34" y="66" rx="2" ry="2"/><rect class="c" x="34" y="82" rx="2" ry="2"/><rect class="c" x="34" y="98" rx="2" ry="2"/><rect class="c" x="50" y="2" rx="2" ry="2"/><rect class="c" x="50" y="18" rx="2" ry="2"/><rect class="c" x="50" y="34" rx="2" ry="2"/><rect class="c" x="50" y="50" rx="2" ry="2"/><rect class="c" x="50" y="66" rx="2" ry="2"/><rect class="c" x="50" y="82" rx="2" ry="2"/><rect class="c" x="50" y="98" rx="2" ry="2"/><rect class="c" x="66" y="2" rx="2" ry="2"/><rect class="c" x="66" y="18" rx="2" ry="2"/><rect class="c c0" x="66" y="34" rx="2" ry="2"/><rect class="c" x="66" y="50" rx="2" ry="2"/><rect class="c" x="66" y="66" rx="2" ry="2"/><rect class="c" x="66" y="82" rx="2" ry="2"/><rect class="c" x="66" y="98" rx="2" ry="2"/><rect class="c" x="82" y="2" rx="2" ry="2"/><rect class="c" x="82" y="18" rx="2" ry="2"/><rect class="c c1" x="82" y="34" rx="2" ry="2"/><rect class="c" x="82" y="50" rx="2" ry="2"/><rect class="c" x="82" y="66" rx="2" ry="2"/><rect class="c" x="82" y="82" rx="2" ry="2"/><rect class="c" x="82" y="98" rx="2" ry="2"/><rect class="c" x="98" y="2" rx="2" ry="2"/><rect class="c" x="98" y="18" rx="2" ry="2"/><rect class="c" x="98" y="34" rx="2" ry="2"/><rect class="c" x="98" y="50" rx="2" ry="2"/><rect class="c c2" x="98" y="66" rx="2" ry="2"/><rect class="c" x="98" y="82" rx="2" ry="2"/><rect class="c" x="98" y="98" rx="2" ry="2"/><rect class="c" x="114" y="2" rx="2" ry="2"/><rect class="c" x="114" y="18" rx="2" ry="2"/><rect class="c" x="114" y="34" rx="2" ry="2"/><rect class="c" x="114" y="50" rx="2" ry="2"/><rect class="c" x="114" y="66" rx="2" ry="2"/><rect class="c" x="114" y="82" rx="2" ry="2"/><rect class="c" x="114" y="98" rx="2" ry="2"/><rect class="c" x="130" y="2" rx="2" ry="2"/><rect class="c c3" x="130" y="18" rx="2" ry="2"/><rect class="c" x="130" y="34" rx="2" ry="2"/><rect class="c" x="130" y="50" rx="2" ry="2"/><rect class="c" x="130" y="66" rx="2" ry="2"/><rect class="c" x="130" y="82" rx="2" ry="2"/><rect class="c" x="130" y="98" rx="2" ry="2"/><rect class="c" x="146" y="2" rx="2" ry="2"/><rect class="c" x="146" y="18" rx="2" ry="2"/><rect class="c" x="146" y="34" rx="2" ry="2"/><rect class="c" x="146" y="50" rx="2" ry="2"/><rect class="c" x="146" y="66" rx="2" ry="2"/><rect class="c c4" x="146" y="82" rx="2" ry="2"/><rect class="c" x="146" y="98" rx="2" ry="2"/><rect class="c" x="162" y="2" rx="2" ry="2"/><rect class="c" x="162" y="18" rx="2" ry="2"/><rect class="c" x="162" y="34" rx="2" ry="2"/><rect class="c" x="162" y="50" rx="2" ry="2"/><rect class="c" x="162" y="66" rx="2" ry="2"/><rect class="c" x="162" y="82" rx="2" ry="2"/><rect class="c" x="162" y="98" rx="2" ry="2"/><rect class="c" x="178" y="2" rx="2" ry="2"/><rect class="c" x="178" y="18" rx="2" ry="2"/><rect class="c" x="178" y="34" rx="2" ry="2"/><rect class="c" x="178" y="50" rx="2" ry="2"/><rect class="c" x="178" y="66" rx="2" ry="2"/><rect class="c" x="178" y="82" rx="2" ry="2"/><rect class="c" x="178" y="98" rx="2" ry="2"/><rect class="c" x="194" y="2" rx="2" ry="2"/><rect class="c" x="194" y="18" rx="2" ry="2"/><rect class="c" x="194" y="34" rx="2" ry="2"/><rect class="c" x="194" y="50" rx="2" ry="2"/><rect class="c" x="194" y="66" rx="2" ry="2"/><rect class="c" x="194" y="82" rx="2" ry="2"/><rect class="c" x="194" y="98" rx="2" ry="2"/><rect class="c" x="210" y="2" rx="2" ry="2"/><rect class="c" x="210" y="18" rx="2" ry="2"/><rect class="c" x="210" y="34" rx="2" ry="2"/><rect class="c" x="210" y="50" rx="2" ry="2"/><rect class="c" x="210" y="66" rx="2" ry="2"/><rect class="c" x="210" y="82" rx="2" ry="2"/><rect class="c" x="210" y="98" rx="2" ry="2"/><rect class="c" x="226" y="2" rx="2" ry="2"/><rect class="c" x="226" y="18" rx="2" ry="2"/><rect class="c" x="226" y="34" rx="2" ry="2"/><rect class="c" x="226" y="50" rx="2" ry="2"/><rect class="c" x="226" y="66" rx="2" ry="2"/><rect class="c" x="226" y="82" rx="2" ry="2"/><rect class="c" x="226" y="98" rx="2" ry="2"/><rect class="c" x="242" y="2" rx="2" ry="2"/><rect class="c" x="242" y="18" rx="2" ry="2"/><rect class="c" x="242" y="34" rx="2" ry="2"/><rect class="c" x="242" y="50" rx="2" ry="2"/><rect class="c" x="242" y="66" rx="2" ry="2"/><rect class="c" x="242" y="82" rx="2" ry="2"/><rect class="c" x="242" y="98" rx="2" ry="2"/><rect class="c" x="258" y="2" rx="2" ry="2"/><rect class="c" x="258" y="18" rx="2" ry="2"/><rect class="c" x="258" y="34" rx="2" ry="2"/><rect class="c" x="258" y="50" rx="2" ry="2"/><rect class="c" x="258" y="66" rx="2" ry="2"/><rect class="c" x="258" y="82" rx="2" ry="2"/><rect class="c" x="258" y="98" rx="2" ry="2"/><rect class="c" x="274" y="2" rx="2" ry="2"/><rect class="c" x="274" y="18" rx="2" ry="2"/><rect class="c" x="274" y="34" rx="2" ry="2"/><rect class="c" x="274" y="50" rx="2" ry="2"/><rect class="c" x="274" y="66" rx="2" ry="2"/><rect class="c" x="274" y="82" rx="2" ry="2"/><rect class="c" x="274" y="98" rx="2" ry="2"/><rect class="c" x="290" y="2" rx="2" ry="2"/><rect class="c c5" x="290" y="18" rx="2" ry="2"/><rect class="c" x="290" y="34" rx="2" ry="2"/><rect class="c" x="290" y="50" rx="2" ry="2"/><rect class="c" x="290" y="66" rx="2" ry="2"/><rect class="c" x="290" y="82" rx="2" ry="2"/><rect class="c" x="290" y="98" rx="2" ry="2"/><rect class="c" x="306" y="2" rx="2" ry="2"/><rect class="c" x="306" y="18" rx="2" ry="2"/><rect class="c" x="306" y="34" rx="2" ry="2"/><rect class="c" x="306" y="50" rx="2" ry="2"/><rect class="c" x="306" y="66" rx="2" ry="2"/><rect class="c" x="306" y="82" rx="2" ry="2"/><rect class="c" x="306" y="98" rx="2" ry="2"/><rect class="c" x="322" y="2" rx="2" ry="2"/><rect class="c" x="322" y="18" rx="2" ry="2"/><rect class="c" x="322" y="34" rx="2" ry="2"/><rect class="c" x="322" y="50" rx="2" ry="2"/><rect class="c" x="322" y="66" rx="2" ry="2"/><rect class="c" x="322" y="82" rx="2" ry="2"/><rect class="c" x="322" y="98" rx="2" ry="2"/><rect class="c" x="338" y="2" rx="2" ry="2"/><rect class="c" x="338" y="18" rx="2" ry="2"/><rect class="c" x="338" y="34" rx="2" ry="2"/><rect class="c" x="338" y="50" rx="2" ry="2"/><rect class="c c6" x="338" y="66" rx="2" ry="2"/><rect class="c c7" x="338" y="82" rx="2" ry="2"/><rect class="c" x="338" y="98" rx="2" ry="2"/><rect class="c c8" x="354" y="2" rx="2" ry="2"/><rect class="c" x="354" y="18" rx="2" ry="2"/><rect class="c" x="354" y="34" rx="2" ry="2"/><rect class="c" x="354" y="50" rx="2" ry="2"/><rect class="c" x="354" y="66" rx="2" ry="2"/><rect class="c" x="354" y="82" rx="2" ry="2"/><rect class="c" x="354" y="98" rx="2" ry="2"/><rect class="c" x="370" y="2" rx="2" ry="2"/><rect class="c" x="370" y="18" rx="2" ry="2"/><rect class="c" x="370" y="34" rx="2" ry="2"/><rect class="c" x="370" y="50" rx="2" ry="2"/><rect class="c" x="370" y="66" rx="2" ry="2"/><rect class="c" x="370" y="82" rx="2" ry="2"/><rect class="c" x="370" y="98" rx="2" ry="2"/><rect class="c" x="386" y="2" rx="2" ry="2"/><rect class="c" x="386" y="18" rx="2" ry="2"/><rect class="c" x="386" y="34" rx="2" ry="2"/><rect class="c" x="386" y="50" rx="2" ry="2"/><rect class="c" x="386" y="66" rx="2" ry="2"/><rect class="c c9" x="386" y="82" rx="2" ry="2"/><rect class="c" x="386" y="98" rx="2" ry="2"/><rect class="c" x="402" y="2" rx="2" ry="2"/><rect class="c ca" x="402" y="18" rx="2" ry="2"/><rect class="c cb" x="402" y="34" rx="2" ry="2"/><rect class="c" x="402" y="50" rx="2" ry="2"/><rect class="c" x="402" y="66" rx="2" ry="2"/><rect class="c" x="402" y="82" rx="2" ry="2"/><rect class="c cc" x="402" y="98" rx="2" ry="2"/><rect class="c cd" x="418" y="2" rx="2" ry="2"/><rect class="c" x="418" y="18" rx="2" ry="2"/><rect class="c ce" x="418" y="34" rx="2" ry="2"/><rect class="c cf" x="418" y="50" rx="2" ry="2"/><rect class="c cg" x="418" y="66" rx="2" ry="2"/><rect class="c ch" x="418" y="82" rx="2" ry="2"/><rect class="c ci" x="418" y="98" rx="2" ry="2"/><rect class="c cj" x="434" y="2" rx="2" ry="2"/><rect class="c" x="434" y="18" rx="2" ry="2"/><rect class="c" x="434" y="34" rx="2" ry="2"/><rect class="c" x="434" y="50" rx="2" ry="2"/><rect class="c" x="434" y="66" rx="2" ry="2"/><rect class="c ck" x="434" y="82" rx="2" ry="2"/><rect class="c cl" x="434" y="98" rx="2" ry="2"/><rect class="c" x="450" y="2" rx="2" ry="2"/><rect class="c cm" x="450" y="18" rx="2" ry="2"/><rect class="c cn" x="450" y="34" rx="2" ry="2"/><rect class="c" x="450" y="50" rx="2" ry="2"/><rect class="c" x="450" y="66" rx="2" ry="2"/><rect class="c co" x="450" y="82" rx="2" ry="2"/><rect class="c" x="450" y="98" rx="2" ry="2"/><rect class="c" x="466" y="2" rx="2" ry="2"/><rect class="c" x="466" y="18" rx="2" ry="2"/><rect class="c" x="466" y="34" rx="2" ry="2"/><rect class="c" x="466" y="50" rx="2" ry="2"/><rect class="c" x="466" y="66" rx="2" ry="2"/><rect class="c cp" x="466" y="82" rx="2" ry="2"/><rect class="c" x="466" y="98" rx="2" ry="2"/><rect class="c" x="482" y="2" rx="2" ry="2"/><rect class="c cq" x="482" y="18" rx="2" ry="2"/><rect class="c cr" x="482" y="34" rx="2" ry="2"/><rect class="c" x="482" y="50" rx="2" ry="2"/><rect class="c" x="482" y="66" rx="2" ry="2"/><rect class="c cs" x="482" y="82" rx="2" ry="2"/><rect class="c" x="482" y="98" rx="2" ry="2"/><rect class="c ct" x="498" y="2" rx="2" ry="2"/><rect class="c cu" x="498" y="18" rx="2" ry="2"/><rect class="c" x="498" y="34" rx="2" ry="2"/><rect class="c" x="498" y="50" rx="2" ry="2"/><rect class="c cv" x="498" y="66" rx="2" ry="2"/><rect class="c cw" x="498" y="82" rx="2" ry="2"/><rect class="c cx" x="498" y="98" rx="2" ry="2"/><rect class="c" x="514" y="2" rx="2" ry="2"/><rect class="c cy" x="514" y="18" rx="2" ry="2"/><rect class="c cz" x="514" y="34" rx="2" ry="2"/><rect class="c c10" x="514" y="50" rx="2" ry="2"/><rect class="c c11" x="514" y="66" rx="2" ry="2"/><rect class="c c12" x="514" y="82" rx="2" ry="2"/><rect class="c" x="514" y="98" rx="2" ry="2"/><rect class="c" x="530" y="2" rx="2" ry="2"/><rect class="c" x="530" y="18" rx="2" ry="2"/><rect class="c c13" x="530" y="34" rx="2" ry="2"/><rect class="c c14" x="530" y="50" rx="2" ry="2"/><rect class="c" x="530" y="66" rx="2" ry="2"/><rect class="c c15" x="530" y="82" rx="2" ry="2"/><rect class="c" x="530" y="98" rx="2" ry="2"/><rect class="c" x="546" y="2" rx="2" ry="2"/><rect class="c c16" x="546" y="18" rx="2" ry="2"/><rect class="c c17" x="546" y="34" rx="2" ry="2"/><rect class="c c18" x="546" y="50" rx="2" ry="2"/><rect class="c c19" x="546" y="66" rx="2" ry="2"/><rect class="c c1a" x="546" y="82" rx="2" ry="2"/><rect class="c c1b" x="546" y="98" rx="2" ry="2"/><rect class="c c1c" x="562" y="2" rx="2" ry="2"/><rect class="c c1d" x="562" y="18" rx="2" ry="2"/><rect class="c c1e" x="562" y="34" rx="2" ry="2"/><rect class="c c1f" x="562" y="50" rx="2" ry="2"/><rect class="c c1g" x="562" y="66" rx="2" ry="2"/><rect class="c c1h" x="562" y="82" rx="2" ry="2"/><rect class="c c1i" x="562" y="98" rx="2" ry="2"/><rect class="c c1j" x="578" y="2" rx="2" ry="2"/><rect class="c c1k" x="578" y="18" rx="2" ry="2"/><rect class="c c1l" x="578" y="34" rx="2" ry="2"/><rect class="c c1m" x="578" y="50" rx="2" ry="2"/><rect class="c c1n" x="578" y="66" rx="2" ry="2"/><rect class="c" x="578" y="82" rx="2" ry="2"/><rect class="c" x="578" y="98" rx="2" ry="2"/><rect class="c" x="594" y="2" rx="2" ry="2"/><rect class="c" x="594" y="18" rx="2" ry="2"/><rect class="c" x="594" y="34" rx="2" ry="2"/><rect class="c" x="594" y="50" rx="2" ry="2"/><rect class="c" x="594" y="66" rx="2" ry="2"/><rect class="c" x="594" y="82" rx="2" ry="2"/><rect class="c" x="594" y="98" rx="2" ry="2"/><rect class="c" x="610" y="2" rx="2" ry="2"/><rect class="c" x="610" y="18" rx="2" ry="2"/><rect class="c" x="610" y="34" rx="2" ry="2"/><rect class="c" x="610" y="50" rx="2" ry="2"/><rect class="c" x="610" y="66" rx="2" ry="2"/><rect class="c" x="610" y="82" rx="2" ry="2"/><rect class="c" x="610" y="98" rx="2" ry="2"/><rect class="c" x="626" y="2" rx="2" ry="2"/><rect class="c" x="626" y="18" rx="2" ry="2"/><rect class="c" x="626" y="34" rx="2" ry="2"/><rect class="c" x="626" y="50" rx="2" ry="2"/><rect class="c" x="626" y="66" rx="2" ry="2"/><rect class="c" x="626" y="82" rx="2" ry="2"/><rect class="c" x="626" y="98" rx="2" ry="2"/><rect class="c" x="642" y="2" rx="2" ry="2"/><rect class="c" x="642" y="18" rx="2" ry="2"/><rect class="c" x="642" y="34" rx="2" ry="2"/><rect class="c" x="642" y="50" rx="2" ry="2"/><rect class="c" x="642" y="66" rx="2" ry="2"/><rect class="c" x="642" y="82" rx="2" ry="2"/><rect class="c" x="642" y="98" rx="2" ry="2"/><rect class="c" x="658" y="2" rx="2" ry="2"/><rect class="c" x="658" y="18" rx="2" ry="2"/><rect class="c" x="658" y="34" rx="2" ry="2"/><rect class="c" x="658" y="50" rx="2" ry="2"/><rect class="c" x="658" y="66" rx="2" ry="2"/><rect class="c" x="658" y="82" rx="2" ry="2"/><rect class="c" x="658" y="98" rx="2" ry="2"/><rect class="c" x="674" y="2" rx="2" ry="2"/><rect class="c" x="674" y="18" rx="2" ry="2"/><rect class="c" x="674" y="34" rx="2" ry="2"/><rect class="c" x="674" y="50" rx="2" ry="2"/><rect class="c" x="674" y="66" rx="2" ry="2"/><rect class="c" x="674" y="82" rx="2" ry="2"/><rect class="c" x="674" y="98" rx="2" ry="2"/><rect class="c" x="690" y="2" rx="2" ry="2"/><rect class="c" x="690" y="18" rx="2" ry="2"/><rect class="c" x="690" y="34" rx="2" ry="2"/><rect class="c" x="690" y="50" rx="2" ry="2"/><rect class="c" x="690" y="66" rx="2" ry="2"/><rect class="c" x="690" y="82" rx="2" ry="2"/><rect class="c" x="690" y="98" rx="2" ry="2"/><rect class="c" x="706" y="2" rx="2" ry="2"/><rect class="c" x="706" y="18" rx="2" ry="2"/><rect class="c" x="706" y="34" rx="2" ry="2"/><rect class="c" x="706" y="50" rx="2" ry="2"/><rect class="c" x="706" y="66" rx="2" ry="2"/><rect class="c" x="706" y="82" rx="2" ry="2"/><rect class="c" x="706" y="98" rx="2" ry="2"/><rect class="c" x="722" y="2" rx="2" ry="2"/><rect class="c" x="722" y="18" rx="2" ry="2"/><rect class="c" x="722" y="34" rx="2" ry="2"/><rect class="c" x="722" y="50" rx="2" ry="2"/><rect class="c" x="722" y="66" rx="2" ry="2"/><rect class="c" x="722" y="82" rx="2" ry="2"/><rect class="c" x="722" y="98" rx="2" ry="2"/><rect class="c" x="738" y="2" rx="2" ry="2"/><rect class="c" x="738" y="18" rx="2" ry="2"/><rect class="c" x="738" y="34" rx="2" ry="2"/><rect class="c" x="738" y="50" rx="2" ry="2"/><rect class="c" x="738" y="66" rx="2" ry="2"/><rect class="c" x="738" y="82" rx="2" ry="2"/><rect class="c" x="738" y="98" rx="2" ry="2"/><rect class="c" x="754" y="2" rx="2" ry="2"/><rect class="c" x="754" y="18" rx="2" ry="2"/><rect class="c" x="754" y="34" rx="2" ry="2"/><rect class="c" x="754" y="50" rx="2" ry="2"/><rect class="c" x="754" y="66" rx="2" ry="2"/><rect class="c" x="754" y="82" rx="2" ry="2"/><rect class="c" x="754" y="98" rx="2" ry="2"/><rect class="c" x="770" y="2" rx="2" ry="2"/><rect class="c" x="770" y="18" rx="2" ry="2"/><rect class="c c1o" x="770" y="34" rx="2" ry="2"/><rect class="c" x="770" y="50" rx="2" ry="2"/><rect class="c" x="770" y="66" rx="2" ry="2"/><rect class="c" x="770" y="82" rx="2" ry="2"/><rect class="c" x="770" y="98" rx="2" ry="2"/><rect class="c" x="786" y="2" rx="2" ry="2"/><rect class="c" x="786" y="18" rx="2" ry="2"/><rect class="c" x="786" y="34" rx="2" ry="2"/><rect class="c c1p" x="786" y="50" rx="2" ry="2"/><rect class="c c1q" x="786" y="66" rx="2" ry="2"/><rect class="c c1r" x="786" y="82" rx="2" ry="2"/><rect class="c" x="786" y="98" rx="2" ry="2"/><rect class="c" x="802" y="2" rx="2" ry="2"/><rect class="c c1s" x="802" y="18" rx="2" ry="2"/><rect class="c" x="802" y="34" rx="2" ry="2"/><rect class="c c1t" x="802" y="50" rx="2" ry="2"/><rect class="c" x="802" y="66" rx="2" ry="2"/><rect class="c c1u" x="802" y="82" rx="2" ry="2"/><rect class="c" x="802" y="98" rx="2" ry="2"/><rect class="c" x="818" y="2" rx="2" ry="2"/><rect class="c c1v" x="818" y="18" rx="2" ry="2"/><rect class="c c1w" x="818" y="34" rx="2" ry="2"/><rect class="c" x="818" y="50" rx="2" ry="2"/><rect class="c" x="818" y="66" rx="2" ry="2"/><rect class="c c1x" x="818" y="82" rx="2" ry="2"/><rect class="c c1y" x="818" y="98" rx="2" ry="2"/><rect class="c c1z" x="834" y="2" rx="2" ry="2"/><rect class="c c20" x="834" y="18" rx="2" ry="2"/><rect class="c" x="834" y="34" rx="2" ry="2"/><rect class="u u0" height="12" width="291.0" x="0.0" y="144"/><rect class="u u1" height="12" width="12.2" x="290.4" y="144"/><rect class="u u2" height="12" width="12.2" x="302.0" y="144"/><rect class="u u3" height="12" width="209.7" x="313.6" y="144"/><rect class="u u4" height="12" width="12.2" x="522.7" y="144"/><rect class="u u5" height="12" width="12.2" x="534.4" y="144"/><rect class="u u6" height="12" width="12.2" x="546.0" y="144"/><rect class="u u7" height="12" width="12.2" x="557.6" y="144"/><rect class="u u8" height="12" width="12.2" x="569.2" y="144"/><rect class="u u9" height="12" width="128.4" x="580.8" y="144"/><rect class="u ua" height="12" width="140.0" x="708.6" y="144"/><rect class="s s0" x="0.8" y="0.8" width="14.4" height="14.4" rx="4.5" ry="4.5"/><rect class="s s1" x="1.8" y="1.8" width="12.3" height="12.3" rx="4.1" ry="4.1"/><rect class="s s2" x="2.6" y="2.6" width="10.8" height="10.8" rx="3.6" ry="3.6"/><rect class="s s3" x="3.0" y="3.0" width="9.9" height="9.9" rx="3.3" ry="3.3"/></svg>